# xmcd
#
# Track frame offsets:
#	150
#	453
#	7748
#	9623
#	20553
#	22717
#	33871
#	34242
#	46425
#	50460
#	51780
#	52082
#	52424
#	67307
#	70072
#	85185
#	85488
#	88896
#	93562
#	102597
#	102903
#	103353
#	106302
#	117874
#
# Disc length: 1874 seconds
#
# Revision: 1
# Processed by: cddbd v1.5.2PL0 Copyright (c) Steve Scherf et al.
# Submitted via: audiograbber 1.83.01
#
DISCID=44075018
DTITLE=Cripple Bastards - Variante Alla Morte
DYEAR=2008
DGENRE=grindcore
TTITLE0=Faccia Da Contenitore
TTITLE1=Variante Alla Morte
TTITLE2=Pedinati
TTITLE3=Allergie Da Contatto
TTITLE4=Insofferenza
TTITLE5=Lo Sfreglio E Le Sue Ombre
TTITLE6=Inverno Nel Ghetto
TTITLE7=Spirito Di Ritorsione
TTITLE8=L'Uomo Dietro Al Vetro Opaco
TTITLE9=Sorriso Decubitale
TTITLE10=Stimolo Chemico
TTITLE11=Cedimento Strutturale
TTITLE12=Sangue Chiama
TTITLE13=Implacabile Verso Il Suo Buio
TTITLE14=Stupro E Addio
TTITLE15=Confessionale In Biano E Nero
TTITLE16=Marchio Catastale
TTITLE17=Gli Anni Che Non Ritornano
TTITLE18=Karma Del Riscatto
TTITLE19=Regredito A Che Punto
TTITLE20=Falsificato Ideale
TTITLE21=Sottoposti Al Taglio
TTITLE22=Conquista Dell'Isolamento
TTITLE23=Auto-Azzeramento
EXTD=
EXTT0=
EXTT1=
EXTT2=
EXTT3=
EXTT4=
EXTT5=
EXTT6=
EXTT7=
EXTT8=
EXTT9=
EXTT10=
EXTT11=
EXTT12=
EXTT13=
EXTT14=
EXTT15=
EXTT16=
EXTT17=
EXTT18=
EXTT19=
EXTT20=
EXTT21=
EXTT22=
EXTT23=
PLAYORDER=
